<svg width="40" height="40" viewBox="0 0 40 40" fill="none" xmlns="http://www.w3.org/2000/svg">
<rect x="23.8694" y="32.874" width="4.1958" height="4.1958" rx="2.0979" fill="#2196F3"/>
<rect x="23.8694" y="6.38655" width="4.1958" height="16.8067" rx="2.0979" fill="#2196F3"/>
<rect x="23.8694" y="25.2773" width="4.1958" height="6.72269" rx="2.0979" fill="#2196F3"/>
<rect width="4.19581" height="4.1958" rx="2.0979" transform="matrix(1 0 0 -1 11.9348 9.41176)" fill="#2196F3"/>
<rect width="4.1958" height="16.8067" rx="2.0979" transform="matrix(1 0 0 -1 11.9348 35.8992)" fill="#2196F3"/>
<rect width="4.19581" height="6.72269" rx="2.0979" transform="matrix(1 0 0 -1 11.9348 17.0084)" fill="#2196F3"/>
<rect y="17.9021" width="4.1958" height="4.1958" rx="2.0979" fill="#2196F3"/>
<rect x="35.8042" y="18.0168" width="4.1958" height="4.1958" rx="2.0979" fill="#2196F3"/>
<rect x="5.96735" y="24.4706" width="4.1958" height="4.1958" rx="2.0979" fill="#2196F3"/>
<rect x="5.96735" y="14.4538" width="4.1958" height="8.7395" rx="2.0979" fill="#2196F3"/>
<rect width="4.1958" height="4.1958" rx="2.0979" transform="matrix(1 0 0 -1 29.8369 17.479)" fill="#2196F3"/>
<rect width="4.19581" height="8.7395" rx="2.0979" transform="matrix(1 0 0 -1 29.8369 27.4958)" fill="#2196F3"/>
<rect x="17.9021" width="4.1958" height="16.8067" rx="2.0979" fill="#2196F3"/>
<path d="M17.9021 20C17.9021 18.8414 18.8414 17.9021 20 17.9021C21.1586 17.9021 22.0979 18.8414 22.0979 20C22.0979 21.1586 21.1586 22.0979 20 22.0979C18.8414 22.0979 17.9021 21.1586 17.9021 20Z" fill="#2196F3"/>
<rect x="17.9021" y="23.1933" width="4.1958" height="16.8067" rx="2.0979" fill="#2196F3"/>
</svg>
